<svg width="84" height="33" viewBox="0 0 84 33" fill="none" xmlns="http://www.w3.org/2000/svg">
<path d="M0.89 31.58H21.638V26.708H9.248C14.12 22.592 20.966 17.048 20.966 9.95C20.966 4.616 17.648 0.709997 11.054 0.709997C5.552 0.709997 1.058 3.944 0.848 10.958H6.56C6.602 7.724 8.156 5.708 10.97 5.708C13.868 5.708 15.086 7.556 15.086 10.286C15.086 15.914 7.82 21.332 0.89 27.212V31.58ZM46.6792 9.026C46.2172 4.7 43.2772 0.667998 37.0192 0.667998C29.2492 0.667998 26.0152 6.212 26.0152 16.208C26.0152 25.7 28.2832 32.084 37.3552 32.084C43.9072 32.084 47.5612 27.758 47.5612 21.836C47.5612 15.452 43.7392 11.84 38.2792 11.84C35.2972 11.84 32.5252 13.1 31.1392 15.41C31.2232 8.354 32.9872 5.498 36.8092 5.498C39.4552 5.498 40.6732 6.758 41.2192 9.026H46.6792ZM36.9352 16.67C40.3372 16.67 41.9752 18.812 41.9752 21.962C41.9752 25.112 40.0852 27.086 37.0612 27.086C33.6172 27.086 31.6852 25.028 31.6852 21.752C31.6852 18.266 34.2052 16.67 36.9352 16.67ZM51.5364 8.9C51.5364 13.31 54.3924 15.746 58.2144 15.746C62.0364 15.746 64.8924 13.31 64.8924 8.9C64.8924 4.532 62.0364 2.096 58.2144 2.096C54.3924 2.096 51.5364 4.532 51.5364 8.9ZM58.1724 5.624C59.6424 5.624 60.5664 6.59 60.5664 8.9C60.5664 11.21 59.6424 12.218 58.1724 12.218C56.7444 12.218 55.8624 11.21 55.8624 8.9C55.8624 6.59 56.7444 5.624 58.1724 5.624ZM56.2824 32H61.9944L78.5004 2.6H72.7464L56.2824 32ZM69.9744 25.658C69.9744 30.11 72.8304 32.504 76.6524 32.504C80.4324 32.504 83.2464 30.11 83.2464 25.658C83.2464 21.248 80.4324 18.854 76.6524 18.854C72.8304 18.854 69.9744 21.248 69.9744 25.658ZM76.6104 22.382C78.0384 22.382 78.9624 23.348 78.9624 25.658C78.9624 28.01 78.0384 28.976 76.6104 28.976C75.1404 28.976 74.2164 28.01 74.2164 25.658C74.2164 23.348 75.1404 22.382 76.6104 22.382Z" fill="#152427"/>
</svg>
