<svg width="88" height="33" viewBox="0 0 88 33" fill="none" xmlns="http://www.w3.org/2000/svg">
<path d="M15.674 32H21.554V26.036H25.25V20.912H21.554V1.76H14.708L0.974 21.416V26.036H15.674V32ZM7.442 20.912L16.052 8.06V20.912H7.442ZM34.1176 15.788C31.0936 17.048 29.2036 19.694 29.2036 23.306C29.2036 29.144 33.9916 32.672 40.2496 32.672C46.5496 32.672 51.3376 29.144 51.3376 23.306C51.3376 19.736 49.4476 17.09 46.4236 15.788C48.8176 14.57 50.5816 12.26 50.5816 9.026C50.5816 4.658 47.2216 0.793999 40.2496 0.793999C33.2776 0.793999 29.9176 4.616 29.9176 9.026C29.9176 12.344 31.5976 14.486 34.1176 15.788ZM40.2496 14.066C37.6036 14.066 35.6716 12.428 35.6716 9.908C35.6716 7.052 37.5196 5.54 40.2496 5.54C43.0636 5.54 44.8696 7.094 44.8696 9.866C44.8696 12.386 42.9376 14.066 40.2496 14.066ZM40.2496 18.35C43.3996 18.35 45.5836 20.03 45.5836 23.054C45.5836 25.742 43.6096 27.8 40.2496 27.8C36.8896 27.8 34.8736 25.784 34.8736 23.054C34.8736 19.946 37.1836 18.35 40.2496 18.35ZM55.3099 8.9C55.3099 13.31 58.1659 15.746 61.9879 15.746C65.8099 15.746 68.6659 13.31 68.6659 8.9C68.6659 4.532 65.8099 2.096 61.9879 2.096C58.1659 2.096 55.3099 4.532 55.3099 8.9ZM61.9459 5.624C63.4159 5.624 64.3399 6.59 64.3399 8.9C64.3399 11.21 63.4159 12.218 61.9459 12.218C60.5179 12.218 59.6359 11.21 59.6359 8.9C59.6359 6.59 60.5179 5.624 61.9459 5.624ZM60.0559 32H65.7679L82.2739 2.6H76.5199L60.0559 32ZM73.7479 25.658C73.7479 30.11 76.6039 32.504 80.4259 32.504C84.2059 32.504 87.0199 30.11 87.0199 25.658C87.0199 21.248 84.2059 18.854 80.4259 18.854C76.6039 18.854 73.7479 21.248 73.7479 25.658ZM80.3839 22.382C81.8119 22.382 82.7359 23.348 82.7359 25.658C82.7359 28.01 81.8119 28.976 80.3839 28.976C78.9139 28.976 77.9899 28.01 77.9899 25.658C77.9899 23.348 78.9139 22.382 80.3839 22.382Z" fill="#152427"/>
</svg>
