<svg width="103" height="55" viewBox="0 0 103 55" fill="none" xmlns="http://www.w3.org/2000/svg">
<path d="M0.816 27.072C0.816 42.408 5.424 53.856 20.256 53.856C35.088 53.856 39.696 42.408 39.696 27.072C39.696 11.88 35.088 0.503998 20.256 0.503998C5.424 0.503998 0.816 11.88 0.816 27.072ZM29.76 27.072C29.76 36.432 28.752 44.496 20.256 44.496C11.76 44.496 10.752 36.432 10.752 27.072C10.752 18.072 11.76 9.864 20.256 9.864C28.752 9.864 29.76 18.072 29.76 27.072ZM47.5069 15.336H57.3709C57.7309 12.024 59.8189 8.856 64.7149 8.856C69.3229 8.856 71.8429 11.304 71.8429 15.408C71.8429 20.592 67.5229 22.248 61.6189 22.248H59.5309V30.528H61.6189C69.1069 30.528 72.8509 32.688 72.8509 38.592C72.8509 42.768 70.2589 45.936 65.2189 45.936C59.8189 45.936 56.7949 42.696 56.5789 38.16H46.7869C47.2189 49.176 55.0669 54.36 65.4349 54.36C76.4509 54.36 82.4989 48.024 82.4989 39.456C82.4989 32.328 78.9709 28.008 73.6429 26.352V26.064C77.4589 24.768 81.5629 20.736 81.5629 14.184C81.5629 6.408 75.8029 0.287996 65.0029 0.287996C54.9229 0.287996 48.0109 5.616 47.5069 15.336ZM102.2 48.6C102.2 45.288 99.6084 42.696 96.0804 42.696C92.4084 42.696 89.8164 45.288 89.8164 48.6C89.8164 51.912 92.4084 54.504 96.0804 54.504C99.6084 54.504 102.2 51.912 102.2 48.6Z" fill="#143C3C"/>
</svg>
