<svg width="101" height="55" viewBox="0 0 101 55" fill="none" xmlns="http://www.w3.org/2000/svg">
<path d="M0.816 27.072C0.816 42.408 5.424 53.856 20.256 53.856C35.088 53.856 39.696 42.408 39.696 27.072C39.696 11.88 35.088 0.503998 20.256 0.503998C5.424 0.503998 0.816 11.88 0.816 27.072ZM29.76 27.072C29.76 36.432 28.752 44.496 20.256 44.496C11.76 44.496 10.752 36.432 10.752 27.072C10.752 18.072 11.76 9.864 20.256 9.864C28.752 9.864 29.76 18.072 29.76 27.072ZM46.7869 53.28H82.3549V44.928H61.1149C69.4669 37.872 81.2029 28.368 81.2029 16.2C81.2029 7.056 75.5149 0.359995 64.2109 0.359995C54.7789 0.359995 47.0749 5.904 46.7149 17.928H56.5069C56.5789 12.384 59.2429 8.928 64.0669 8.928C69.0349 8.928 71.1229 12.096 71.1229 16.776C71.1229 26.424 58.6669 35.712 46.7869 45.792V53.28ZM100.443 48.6C100.443 45.288 97.8506 42.696 94.3226 42.696C90.6506 42.696 88.0586 45.288 88.0586 48.6C88.0586 51.912 90.6506 54.504 94.3226 54.504C97.8506 54.504 100.443 51.912 100.443 48.6Z" fill="#143C3C"/>
</svg>
