<svg width="86" height="55" viewBox="0 0 86 55" fill="none" xmlns="http://www.w3.org/2000/svg">
<path d="M0.816 27.072C0.816 42.408 5.424 53.856 20.256 53.856C35.088 53.856 39.696 42.408 39.696 27.072C39.696 11.88 35.088 0.503998 20.256 0.503998C5.424 0.503998 0.816 11.88 0.816 27.072ZM29.76 27.072C29.76 36.432 28.752 44.496 20.256 44.496C11.76 44.496 10.752 36.432 10.752 27.072C10.752 18.072 11.76 9.864 20.256 9.864C28.752 9.864 29.76 18.072 29.76 27.072ZM53.1229 54H63.4909V1.512H46.1389V10.8H53.1229V54ZM85.1848 48.6C85.1848 45.288 82.5928 42.696 79.0648 42.696C75.3928 42.696 72.8008 45.288 72.8008 48.6C72.8008 51.912 75.3928 54.504 79.0648 54.504C82.5928 54.504 85.1848 51.912 85.1848 48.6Z" fill="#143C3C"/>
</svg>
